<svg width="13" height="23" viewBox="0 0 13 23" fill="none" xmlns="http://www.w3.org/2000/svg">
<path d="M10.9999 23C10.8683 23.0008 10.7378 22.9755 10.616 22.9258C10.4941 22.876 10.3833 22.8027 10.2899 22.71L1.70988 14.12C1.14808 13.5575 0.83252 12.795 0.83252 12C0.83252 11.205 1.14808 10.4425 1.70988 9.88L10.2899 1.29C10.4782 1.1017 10.7336 0.995911 10.9999 0.995911C11.2662 0.995911 11.5216 1.1017 11.7099 1.29C11.8982 1.47831 12.004 1.7337 12.004 2C12.004 2.2663 11.8982 2.5217 11.7099 2.71L3.11988 11.29C3.02615 11.383 2.95176 11.4936 2.90099 11.6154C2.85022 11.7373 2.82408 11.868 2.82408 12C2.82408 12.132 2.85022 12.2627 2.90099 12.3846C2.95176 12.5064 3.02615 12.617 3.11988 12.71L11.7099 21.29C11.8036 21.383 11.878 21.4936 11.9288 21.6154C11.9795 21.7373 12.0057 21.868 12.0057 22C12.0057 22.132 11.9795 22.2627 11.9288 22.3846C11.878 22.5064 11.8036 22.617 11.7099 22.71C11.6164 22.8027 11.5056 22.876 11.3838 22.9258C11.2619 22.9755 11.1315 23.0008 10.9999 23Z" fill="currentColor"/>
</svg>
