<svg width="40" height="36" viewBox="0 0 40 36" fill="none" xmlns="http://www.w3.org/2000/svg">
<path d="M0.691767 17.66L10.4734 22.535C10.8518 22.7216 11.2984 22.7083 11.6601 22.4966L20.3668 17.435L15.0968 22.105C14.8284 22.3433 14.6751 22.6833 14.6751 23.0416V34.4166C14.6751 35.6166 16.2068 36.1216 16.9251 35.1683L21.1534 29.5466L31.6101 35.5016C32.3434 35.9233 33.2834 35.5 33.4534 34.6616L39.9751 2.16163C40.1701 1.18496 39.1984 0.388294 38.2951 0.751627L0.795101 15.3766C-0.211566 15.77 -0.276566 17.1783 0.691767 17.66ZM37.0751 3.91163L31.3434 32.4733L21.4351 26.83C20.8951 26.5216 20.2001 26.6583 19.8168 27.165L17.1751 30.6766V23.6033L31.4268 10.9766C32.5551 9.97829 31.2584 8.20329 29.9701 8.95996L10.9868 19.9966L4.33343 16.6816L37.0751 3.91163Z" fill="#726DA8"/>
</svg>
