<svg xmlns="http://www.w3.org/2000/svg" xmlns:xlink="http://www.w3.org/1999/xlink"><defs><clipPath id="a"><path fill="#fff" d="M0 0h40v40H0z"/></clipPath></defs><symbol id="arrow-next"><g fill="none"><path d="M2 0a1 1 0 0 1 .71.29l8.58 8.59a3 3 0 0 1 0 4.24l-8.58 8.59a1.004 1.004 0 1 1-1.42-1.42l8.59-8.58a1.001 1.001 0 0 0 0-1.42L1.29 1.71A1 1 0 0 1 2 0Z" fill="currentColor"/></g></symbol><symbol id="arrow-prev"><g fill="none"><path d="M11 23a1 1 0 0 1-.71-.29l-8.58-8.59a3 3 0 0 1 0-4.24l8.58-8.59a1.004 1.004 0 0 1 1.42 1.42l-8.59 8.58a1 1 0 0 0 0 1.42l8.59 8.58a1.002 1.002 0 0 1-.326 1.636A1 1 0 0 1 11 23Z" fill="currentColor"/></g></symbol><symbol id="arrow"><g fill="none"><path d="M230.707 8.707a1 1 0 0 0 0-1.414L224.343.929a1 1 0 1 0-1.414 1.414L228.586 8l-5.657 5.657a1 1 0 1 0 1.414 1.414l6.364-6.364ZM0 9h230V7H0v2Z" fill="#fff"/></g></symbol><symbol id="insta-icon"><g fill="none"><g clip-path="url(#a)" fill="#726DA8"><path d="M7.917 40h24.166C36.448 40 40 36.448 40 32.083V7.917C40 3.552 36.448 0 32.083 0H7.917C3.552 0 0 3.552 0 7.917v24.166C0 36.448 3.552 40 7.917 40ZM2.5 7.917A5.423 5.423 0 0 1 7.917 2.5h24.166A5.423 5.423 0 0 1 37.5 7.917v24.166a5.423 5.423 0 0 1-5.417 5.417H7.917A5.423 5.423 0 0 1 2.5 32.083V7.917Z"/><path d="M20 30.217c5.633 0 10.217-4.584 10.217-10.217 0-5.633-4.584-10.217-10.217-10.217-5.633 0-10.217 4.584-10.217 10.217 0 5.633 4.584 10.217 10.217 10.217Zm0-17.934c4.255 0 7.717 3.462 7.717 7.717 0 4.255-3.462 7.717-7.717 7.717-4.255 0-7.717-3.462-7.717-7.717 0-4.255 3.462-7.717 7.717-7.717ZM30.596 12.27c1.644 0 2.882-1.233 2.882-2.868 0-1.705-1.303-2.869-2.88-2.869-1.643 0-2.881 1.234-2.881 2.869 0 1.701 1.296 2.868 2.88 2.868Zm.296-3.143c.526.465-.675 1.03-.675.276 0-.45.611-.333.675-.276Z"/></g></g></symbol><symbol id="telegram-icon"><g fill="none"><path d="m.692 17.66 9.781 4.875c.379.187.825.173 1.187-.038l8.707-5.062-5.27 4.67a1.251 1.251 0 0 0-.422.937v11.375c0 1.2 1.532 1.705 2.25.751l4.228-5.621 10.457 5.955a1.25 1.25 0 0 0 1.843-.84l6.522-32.5c.195-.977-.777-1.774-1.68-1.41L.795 15.377c-1.007.393-1.072 1.801-.103 2.283ZM37.075 3.912l-5.732 28.561-9.908-5.643a1.253 1.253 0 0 0-1.618.335l-2.642 3.512v-7.074l14.252-12.626c1.128-.999-.169-2.774-1.457-2.017L10.987 19.997l-6.654-3.315 32.742-12.77Z" fill="#726DA8"/></g></symbol><symbol id="tick"><g fill="none"><path d="M21.678 0a2.316 2.316 0 0 0-1.64.68L9.291 11.425 3.967 6.1A2.322 2.322 0 1 0 .683 9.383L7.65 16.35a2.322 2.322 0 0 0 3.284 0L23.32 3.964A2.323 2.323 0 0 0 21.678 0Z" fill="#fff"/></g></symbol><symbol id="vk-icon"><g fill="none"><path d="M20.242 25.5c5.786 0 3.723-3.663 4.17-4.717-.007-.786-.014-1.543.013-2.003.367.103 1.232.542 3.018 2.278 2.759 2.784 3.464 4.442 5.692 4.442h4.102c1.3 0 1.976-.538 2.315-.99.326-.437.646-1.203.296-2.397-.915-2.873-6.251-7.835-6.583-8.358.05-.097.13-.225.172-.292h-.004c1.054-1.391 5.074-7.415 5.665-9.825a.031.031 0 0 0 .004-.013c.32-1.1.026-1.813-.277-2.217C38.368.805 37.642.5 36.66.5h-4.102c-1.373 0-2.415.692-2.941 1.953-.882 2.242-3.359 6.852-5.215 8.484-.057-2.312-.019-4.077.011-5.389C24.473 2.99 24.667.5 22.012.5h-6.447c-1.663 0-3.255 1.817-1.532 3.973 1.507 1.89.542 2.944.867 8.187-1.267-1.358-3.52-5.027-5.113-9.715C9.34 1.677 8.663.502 6.758.502H2.657C.993.502 0 1.408 0 2.927 0 6.337 7.548 25.5 20.242 25.5ZM6.758 3.002c.362 0 .399 0 .667.761 1.632 4.805 5.292 11.915 7.965 11.915 2.008 0 2.008-2.058 2.008-2.833l-.001-6.17c-.11-2.042-.854-3.058-1.342-3.675l5.847.007c.003.028-.034 6.825.016 8.471 0 2.339 1.857 3.679 4.755.745 3.059-3.451 5.174-8.611 5.259-8.821.125-.3.233-.402.626-.402H36.677l-.004.015c-.375 1.75-4.076 7.327-5.315 9.058-.02.027-.038.055-.056.084-.545.89-.989 1.873.075 3.256h.001c.097.117.349.39.715.77 1.14 1.177 5.05 5.2 5.397 6.8-.23.037-.48.01-4.355.019-.825 0-1.47-1.234-3.932-3.717-2.213-2.153-3.65-3.033-4.958-3.033-2.54 0-2.355 2.061-2.332 4.555.009 2.703-.008 1.848.01 2.018-.148.058-.573.175-1.681.175C9.667 23 2.78 6.215 2.515 3.007c.092-.009 1.353-.004 4.243-.005Z" fill="#726DA8"/></g></symbol></svg>